<svg width="16" height="16" viewBox="0 0 16 16" fill="none" xmlns="http://www.w3.org/2000/svg">
<rect width="16" height="16" rx="8" fill="#DCFF70"/>
<rect x="7.65538" y="12.6523" width="0.849231" height="0.849231" fill="#F3322C"/>
<rect x="6.80615" y="11.8031" width="2.54769" height="0.849231" fill="#F3322C"/>
<rect x="5.95692" y="10.9539" width="4.24615" height="0.849231" fill="#F3322C"/>
<rect x="5.10769" y="10.1046" width="5.94462" height="0.849231" fill="#F3322C"/>
<rect x="4.25846" y="9.2554" width="7.64308" height="0.849231" fill="#F3322C"/>
<rect x="3.40923" y="8.40616" width="9.34154" height="0.849231" fill="#F3322C"/>
<rect x="3.40923" y="5.00925" width="4.24615" height="0.849231" fill="#F3322C"/>
<rect x="4.25846" y="4.16" width="2.54769" height="0.849231" fill="#F3322C"/>
<rect x="9.35384" y="4.16" width="2.54769" height="0.849231" fill="#F3322C"/>
<rect x="8.50462" y="5.00925" width="4.24615" height="0.849231" fill="#F3322C"/>
<rect x="2.56" y="7.55692" width="11.04" height="0.849231" fill="#F3322C"/>
<rect x="2.56" y="6.7077" width="11.04" height="0.849231" fill="#F3322C"/>
<rect x="2.56" y="5.85846" width="11.04" height="0.849231" fill="#F3322C"/>
<rect x="11.0523" y="5.85846" width="0.849231" height="0.849231" fill="white"/>
<rect x="11.9015" y="6.7077" width="0.849231" height="0.849231" fill="white"/>
</svg>
