<svg width="167" height="42" viewBox="0 0 167 42" fill="none" xmlns="http://www.w3.org/2000/svg">
<rect width="167" height="35" transform="matrix(0.999229 -0.0392598 0 1 0 7)" fill="black"/>
<path d="M20.5921 26.8789C20.3283 27.96 19.8813 28.8502 19.2511 29.5496C18.6356 30.2485 17.8809 30.7695 16.9869 31.1126C16.1076 31.4405 15.133 31.6254 14.0631 31.6675C12.5683 31.7262 11.2713 31.4838 10.1721 30.9403C9.08764 30.3816 8.25229 29.5564 7.66607 28.4648C7.07986 27.3732 6.78675 26.0427 6.78675 24.4733C6.78675 22.904 7.07986 21.5505 7.66607 20.4128C8.25229 19.2751 9.08764 18.3916 10.1721 17.7623C11.2713 17.1178 12.561 16.7665 14.0412 16.7083C15.0963 16.6669 16.0636 16.7755 16.9429 17.0343C17.8369 17.2925 18.5916 17.7175 19.2072 18.3093C19.8227 18.9012 20.2404 19.6841 20.4602 20.6581L16.5692 22.373C16.408 21.4407 16.1222 20.8285 15.7119 20.5367C15.3162 20.2442 14.8032 20.1104 14.1731 20.1351C13.5868 20.1582 13.0812 20.332 12.6562 20.6567C12.2459 20.9662 11.9308 21.4259 11.711 22.0359C11.5058 22.6306 11.4032 23.3826 11.4032 24.292C11.4032 25.1866 11.4984 25.9309 11.689 26.5247C11.8941 27.118 12.2019 27.5606 12.6123 27.8525C13.0373 28.1291 13.5868 28.2542 14.261 28.2277C14.8619 28.2041 15.3675 28.0082 15.7778 27.6401C16.1882 27.272 16.4593 26.7113 16.5912 25.9581L20.5921 26.8789ZM26.741 27.5833L33.6437 27.3121V30.6781L22.2565 31.1255V16.6055L26.741 16.4293V27.5833ZM41.7781 15.6185C43.2876 15.5592 44.5773 15.8092 45.6471 16.3685C46.7316 16.9126 47.5596 17.7307 48.1312 18.8229C48.7174 19.9145 49.0105 21.245 49.0105 22.8144C49.0105 24.3837 48.7174 25.7372 48.1312 26.8749C47.5596 28.012 46.7316 28.9026 45.6471 29.5465C44.5773 30.1752 43.2876 30.5192 41.7781 30.5785C40.2832 30.6373 38.9862 30.3949 37.8871 29.8514C36.8026 29.2927 35.9672 28.4675 35.381 27.3759C34.7948 26.2842 34.5017 24.9538 34.5017 23.3844C34.5017 21.8151 34.7948 20.4616 35.381 19.3239C35.9672 18.1862 36.8026 17.3027 37.8871 16.6734C38.9862 16.0289 40.2832 15.6773 41.7781 15.6185ZM41.7781 19.0505C41.1772 19.0741 40.6789 19.2477 40.2832 19.5713C39.9022 19.8796 39.6091 20.3311 39.4039 20.9258C39.2134 21.52 39.1181 22.279 39.1181 23.203C39.1181 24.1124 39.2134 24.864 39.4039 25.4578C39.6091 26.0364 39.9022 26.4722 40.2832 26.7653C40.6789 27.043 41.1772 27.1701 41.7781 27.1465C42.3643 27.1235 42.8552 26.9575 43.2509 26.6487C43.6466 26.3251 43.9397 25.8663 44.1303 25.2721C44.3208 24.6633 44.416 23.9042 44.416 22.9949C44.416 22.0709 44.3208 21.3193 44.1303 20.7401C43.9397 20.1609 43.6466 19.7324 43.2509 19.4547C42.8552 19.1622 42.3643 19.0275 41.7781 19.0505ZM64.4074 14.9494V23.3754C64.4074 25.4874 63.8432 27.0936 62.7147 28.1939C61.5862 29.2796 59.9009 29.8665 57.6586 29.9546C55.4017 30.0433 53.709 29.5891 52.5805 28.5921C51.452 27.5804 50.8878 26.0186 50.8878 23.9066V15.4806L55.3943 15.3035V23.9715C55.3943 24.8515 55.5849 25.5041 55.9659 25.9291C56.3469 26.3541 56.9112 26.5519 57.6586 26.5226C58.406 26.4932 58.9702 26.251 59.3513 25.7961C59.7323 25.3411 59.9228 24.6736 59.9228 23.7936V15.1256L64.4074 14.9494ZM73.463 14.5936C75.7346 14.5044 77.4639 15.0671 78.651 16.2818C79.8381 17.4965 80.4316 19.2625 80.4316 21.5798C80.4316 23.8825 79.8381 25.6951 78.651 27.0178C77.4639 28.3258 75.7346 29.0244 73.463 29.1136L66.8022 29.3753V14.8553L73.463 14.5936ZM72.9134 25.8572C73.9979 25.8146 74.7527 25.4623 75.1777 24.8003C75.6027 24.1236 75.8152 23.1105 75.8152 21.7612C75.8152 20.4119 75.6027 19.4229 75.1777 18.7943C74.7527 18.151 73.9979 17.8506 72.9134 17.8932L71.2867 17.9571V25.9211L72.9134 25.8572ZM96.233 13.699V28.219L91.3088 28.4125L87.3518 21.3739L86.4285 19.4522L86.3846 19.4539L86.4725 22.3105V28.6025L82.5595 28.7562V14.2362L87.4617 14.0436L91.4187 21.0821L92.364 23.003L92.3859 23.0021L92.298 20.1456V13.8536L96.233 13.699ZM105.645 13.1092C107.154 13.0499 108.444 13.2999 109.514 13.8592C110.598 14.4032 111.426 15.2214 111.998 16.3136C112.584 17.4052 112.877 18.7357 112.877 20.305C112.877 21.8744 112.584 23.2279 111.998 24.3656C111.426 25.5027 110.598 26.3932 109.514 27.0372C108.444 27.6659 107.154 28.0099 105.645 28.0692C104.15 28.1279 102.853 27.8856 101.754 27.3421C100.669 26.7834 99.834 25.9582 99.2477 24.8665C98.6615 23.7749 98.3684 22.4444 98.3684 20.8751C98.3684 19.3058 98.6615 17.9522 99.2477 16.8145C99.834 15.6768 100.669 14.7934 101.754 14.1641C102.853 13.5196 104.15 13.1679 105.645 13.1092ZM105.645 16.5412C105.044 16.5648 104.546 16.7384 104.15 17.0619C103.769 17.3702 103.476 17.8217 103.271 18.4165C103.08 19.0106 102.985 19.7697 102.985 20.6937C102.985 21.603 103.08 22.3546 103.271 22.9485C103.476 23.5271 103.769 23.9629 104.15 24.2559C104.546 24.5337 105.044 24.6608 105.645 24.6372C106.231 24.6142 106.722 24.4482 107.118 24.1393C107.513 23.8158 107.806 23.3569 107.997 22.7628C108.188 22.154 108.283 21.3949 108.283 20.4856C108.283 19.5616 108.188 18.81 107.997 18.2308C107.806 17.6516 107.513 17.2231 107.118 16.9453C106.722 16.6529 106.231 16.5182 105.645 16.5412ZM128.274 12.4401V20.8661C128.274 22.9781 127.71 24.5843 126.581 25.6846C125.453 26.7703 123.768 27.3572 121.525 27.4453C119.268 27.5339 117.576 27.0798 116.447 26.0828C115.319 25.0711 114.755 23.5093 114.755 21.3973V12.9713L119.261 12.7942V21.4622C119.261 22.3422 119.452 22.9947 119.833 23.4198C120.214 23.8448 120.778 24.0426 121.525 24.0132C122.273 23.9839 122.837 23.7417 123.218 23.2867C123.599 22.8318 123.79 22.1643 123.79 21.2843V12.6163L128.274 12.4401ZM144.342 11.8088V26.3288L139.418 26.5222L135.461 19.4837L134.538 17.562L134.494 17.5637L134.582 20.4203V26.7123L130.669 26.866V12.346L135.571 12.1534L139.528 19.1919L140.473 21.1128L140.495 21.1119L140.407 18.2554V11.9634L144.342 11.8088ZM153.051 11.2466C154.428 11.1925 155.652 11.3351 156.722 11.6744C157.792 11.999 158.73 12.5268 159.536 13.2578L157.579 16.2167C156.92 15.6853 156.216 15.2802 155.469 15.0016C154.736 14.7077 153.923 14.5784 153.029 14.6135C152.574 14.6313 152.208 14.6897 151.93 14.7887C151.651 14.8876 151.446 15.0203 151.314 15.1868C151.197 15.3381 151.138 15.5091 151.138 15.6998C151.138 15.9344 151.277 16.1196 151.556 16.2553C151.849 16.3905 152.252 16.5067 152.765 16.6038L154.963 17.0235C156.429 17.3032 157.521 17.759 158.239 18.3908C158.957 19.0079 159.316 19.8811 159.316 21.0105C159.316 22.1105 159.037 23.0381 158.481 23.7933C157.938 24.5479 157.191 25.1273 156.238 25.5314C155.286 25.9355 154.208 26.1611 153.007 26.2083C152.054 26.2458 151.124 26.187 150.215 26.032C149.321 25.8765 148.5 25.6374 147.753 25.3148C147.005 24.9775 146.361 24.5701 145.818 24.0928L147.753 21.0468C148.148 21.4126 148.632 21.7382 149.204 22.0238C149.775 22.2946 150.383 22.5054 151.028 22.6561C151.673 22.8067 152.296 22.8703 152.897 22.8467C153.322 22.83 153.666 22.7798 153.93 22.6961C154.208 22.5971 154.406 22.472 154.524 22.3207C154.641 22.1695 154.699 21.9912 154.699 21.7858C154.699 21.5365 154.604 21.3422 154.414 21.2031C154.223 21.0492 153.864 20.924 153.336 20.8274L150.918 20.3724C150.127 20.2275 149.394 20.0143 148.72 19.7328C148.046 19.4513 147.504 19.0472 147.093 18.5207C146.698 17.9789 146.5 17.2607 146.5 16.366C146.5 15.4127 146.756 14.5593 147.269 13.8058C147.782 13.0523 148.53 12.4509 149.511 12.0017C150.493 11.5524 151.673 11.3007 153.051 11.2466Z" fill="white"/>
<path d="M20.5921 26.8789C20.3283 27.96 19.8813 28.8502 19.2511 29.5496C18.6356 30.2485 17.8809 30.7695 16.9869 31.1126C16.1076 31.4405 15.133 31.6254 14.0631 31.6675C12.5683 31.7262 11.2713 31.4838 10.1721 30.9403C9.08764 30.3816 8.25229 29.5564 7.66607 28.4648C7.07986 27.3732 6.78675 26.0427 6.78675 24.4733C6.78675 22.904 7.07986 21.5505 7.66607 20.4128C8.25229 19.2751 9.08764 18.3916 10.1721 17.7623C11.2713 17.1178 12.561 16.7665 14.0412 16.7083C15.0963 16.6669 16.0636 16.7755 16.9429 17.0343C17.8369 17.2925 18.5916 17.7175 19.2072 18.3093C19.8227 18.9012 20.2404 19.6841 20.4602 20.6581L16.5692 22.373C16.408 21.4407 16.1222 20.8285 15.7119 20.5367C15.3162 20.2442 14.8032 20.1104 14.1731 20.1351C13.5868 20.1582 13.0812 20.332 12.6562 20.6567C12.2459 20.9662 11.9308 21.4259 11.711 22.0359C11.5058 22.6306 11.4032 23.3826 11.4032 24.292C11.4032 25.1866 11.4984 25.9309 11.689 26.5247C11.8941 27.118 12.2019 27.5606 12.6123 27.8525C13.0373 28.1291 13.5868 28.2542 14.261 28.2277C14.8619 28.2041 15.3675 28.0082 15.7778 27.6401C16.1882 27.272 16.4593 26.7113 16.5912 25.9581L20.5921 26.8789ZM26.741 27.5833L33.6437 27.3121V30.6781L22.2565 31.1255V16.6055L26.741 16.4293V27.5833ZM41.7781 15.6185C43.2876 15.5592 44.5773 15.8092 45.6471 16.3685C46.7316 16.9126 47.5596 17.7307 48.1312 18.8229C48.7174 19.9145 49.0105 21.245 49.0105 22.8144C49.0105 24.3837 48.7174 25.7372 48.1312 26.8749C47.5596 28.012 46.7316 28.9026 45.6471 29.5465C44.5773 30.1752 43.2876 30.5192 41.7781 30.5785C40.2832 30.6373 38.9862 30.3949 37.8871 29.8514C36.8026 29.2927 35.9672 28.4675 35.381 27.3759C34.7948 26.2842 34.5017 24.9538 34.5017 23.3844C34.5017 21.8151 34.7948 20.4616 35.381 19.3239C35.9672 18.1862 36.8026 17.3027 37.8871 16.6734C38.9862 16.0289 40.2832 15.6773 41.7781 15.6185ZM41.7781 19.0505C41.1772 19.0741 40.6789 19.2477 40.2832 19.5713C39.9022 19.8796 39.6091 20.3311 39.4039 20.9258C39.2134 21.52 39.1181 22.279 39.1181 23.203C39.1181 24.1124 39.2134 24.864 39.4039 25.4578C39.6091 26.0364 39.9022 26.4722 40.2832 26.7653C40.6789 27.043 41.1772 27.1701 41.7781 27.1465C42.3643 27.1235 42.8552 26.9575 43.2509 26.6487C43.6466 26.3251 43.9397 25.8663 44.1303 25.2721C44.3208 24.6633 44.416 23.9042 44.416 22.9949C44.416 22.0709 44.3208 21.3193 44.1303 20.7401C43.9397 20.1609 43.6466 19.7324 43.2509 19.4547C42.8552 19.1622 42.3643 19.0275 41.7781 19.0505ZM64.4074 14.9494V23.3754C64.4074 25.4874 63.8432 27.0936 62.7147 28.1939C61.5862 29.2796 59.9009 29.8665 57.6586 29.9546C55.4017 30.0433 53.709 29.5891 52.5805 28.5921C51.452 27.5804 50.8878 26.0186 50.8878 23.9066V15.4806L55.3943 15.3035V23.9715C55.3943 24.8515 55.5849 25.5041 55.9659 25.9291C56.3469 26.3541 56.9112 26.5519 57.6586 26.5226C58.406 26.4932 58.9702 26.251 59.3513 25.7961C59.7323 25.3411 59.9228 24.6736 59.9228 23.7936V15.1256L64.4074 14.9494ZM73.463 14.5936C75.7346 14.5044 77.4639 15.0671 78.651 16.2818C79.8381 17.4965 80.4316 19.2625 80.4316 21.5798C80.4316 23.8825 79.8381 25.6951 78.651 27.0178C77.4639 28.3258 75.7346 29.0244 73.463 29.1136L66.8022 29.3753V14.8553L73.463 14.5936ZM72.9134 25.8572C73.9979 25.8146 74.7527 25.4623 75.1777 24.8003C75.6027 24.1236 75.8152 23.1105 75.8152 21.7612C75.8152 20.4119 75.6027 19.4229 75.1777 18.7943C74.7527 18.151 73.9979 17.8506 72.9134 17.8932L71.2867 17.9571V25.9211L72.9134 25.8572ZM96.233 13.699V28.219L91.3088 28.4125L87.3518 21.3739L86.4285 19.4522L86.3846 19.4539L86.4725 22.3105V28.6025L82.5595 28.7562V14.2362L87.4617 14.0436L91.4187 21.0821L92.364 23.003L92.3859 23.0021L92.298 20.1456V13.8536L96.233 13.699ZM105.645 13.1092C107.154 13.0499 108.444 13.2999 109.514 13.8592C110.598 14.4032 111.426 15.2214 111.998 16.3136C112.584 17.4052 112.877 18.7357 112.877 20.305C112.877 21.8744 112.584 23.2279 111.998 24.3656C111.426 25.5027 110.598 26.3932 109.514 27.0372C108.444 27.6659 107.154 28.0099 105.645 28.0692C104.15 28.1279 102.853 27.8856 101.754 27.3421C100.669 26.7834 99.834 25.9582 99.2477 24.8665C98.6615 23.7749 98.3684 22.4444 98.3684 20.8751C98.3684 19.3058 98.6615 17.9522 99.2477 16.8145C99.834 15.6768 100.669 14.7934 101.754 14.1641C102.853 13.5196 104.15 13.1679 105.645 13.1092ZM105.645 16.5412C105.044 16.5648 104.546 16.7384 104.15 17.0619C103.769 17.3702 103.476 17.8217 103.271 18.4165C103.08 19.0106 102.985 19.7697 102.985 20.6937C102.985 21.603 103.08 22.3546 103.271 22.9485C103.476 23.5271 103.769 23.9629 104.15 24.2559C104.546 24.5337 105.044 24.6608 105.645 24.6372C106.231 24.6142 106.722 24.4482 107.118 24.1393C107.513 23.8158 107.806 23.3569 107.997 22.7628C108.188 22.154 108.283 21.3949 108.283 20.4856C108.283 19.5616 108.188 18.81 107.997 18.2308C107.806 17.6516 107.513 17.2231 107.118 16.9453C106.722 16.6529 106.231 16.5182 105.645 16.5412ZM128.274 12.4401V20.8661C128.274 22.9781 127.71 24.5843 126.581 25.6846C125.453 26.7703 123.768 27.3572 121.525 27.4453C119.268 27.5339 117.576 27.0798 116.447 26.0828C115.319 25.0711 114.755 23.5093 114.755 21.3973V12.9713L119.261 12.7942V21.4622C119.261 22.3422 119.452 22.9947 119.833 23.4198C120.214 23.8448 120.778 24.0426 121.525 24.0132C122.273 23.9839 122.837 23.7417 123.218 23.2867C123.599 22.8318 123.79 22.1643 123.79 21.2843V12.6163L128.274 12.4401ZM144.342 11.8088V26.3288L139.418 26.5222L135.461 19.4837L134.538 17.562L134.494 17.5637L134.582 20.4203V26.7123L130.669 26.866V12.346L135.571 12.1534L139.528 19.1919L140.473 21.1128L140.495 21.1119L140.407 18.2554V11.9634L144.342 11.8088ZM153.051 11.2466C154.428 11.1925 155.652 11.3351 156.722 11.6744C157.792 11.999 158.73 12.5268 159.536 13.2578L157.579 16.2167C156.92 15.6853 156.216 15.2802 155.469 15.0016C154.736 14.7077 153.923 14.5784 153.029 14.6135C152.574 14.6313 152.208 14.6897 151.93 14.7887C151.651 14.8876 151.446 15.0203 151.314 15.1868C151.197 15.3381 151.138 15.5091 151.138 15.6998C151.138 15.9344 151.277 16.1196 151.556 16.2553C151.849 16.3905 152.252 16.5067 152.765 16.6038L154.963 17.0235C156.429 17.3032 157.521 17.759 158.239 18.3908C158.957 19.0079 159.316 19.8811 159.316 21.0105C159.316 22.1105 159.037 23.0381 158.481 23.7933C157.938 24.5479 157.191 25.1273 156.238 25.5314C155.286 25.9355 154.208 26.1611 153.007 26.2083C152.054 26.2458 151.124 26.187 150.215 26.032C149.321 25.8765 148.5 25.6374 147.753 25.3148C147.005 24.9775 146.361 24.5701 145.818 24.0928L147.753 21.0468C148.148 21.4126 148.632 21.7382 149.204 22.0238C149.775 22.2946 150.383 22.5054 151.028 22.6561C151.673 22.8067 152.296 22.8703 152.897 22.8467C153.322 22.83 153.666 22.7798 153.93 22.6961C154.208 22.5971 154.406 22.472 154.524 22.3207C154.641 22.1695 154.699 21.9912 154.699 21.7858C154.699 21.5365 154.604 21.3422 154.414 21.2031C154.223 21.0492 153.864 20.924 153.336 20.8274L150.918 20.3724C150.127 20.2275 149.394 20.0143 148.72 19.7328C148.046 19.4513 147.504 19.0472 147.093 18.5207C146.698 17.9789 146.5 17.2607 146.5 16.366C146.5 15.4127 146.756 14.5593 147.269 13.8058C147.782 13.0523 148.53 12.4509 149.511 12.0017C150.493 11.5524 151.673 11.3007 153.051 11.2466Z" fill="white"/>
</svg>
